<?xml version="1.0" encoding="UTF-8" standalone="no"?>
<svg width="200px" height="200px" viewBox="0 0 200 200" version="1.1" xmlns="http://www.w3.org/2000/svg" xmlns:xlink="http://www.w3.org/1999/xlink" xmlns:sketch="http://www.bohemiancoding.com/sketch/ns">
    <!-- Generator: Sketch 3.1 (8751) - http://www.bohemiancoding.com/sketch -->
    <title>airplane</title>
    <desc>Created with Sketch.</desc>
    <defs></defs>
    <g id="Page-1" stroke="none" stroke-width="1" fill="none" fill-rule="evenodd" sketch:type="MSPage">
        <g id="airplane" sketch:type="MSLayerGroup">
            <path d="M100,0 C44.772,0 0,44.772 0,100 C0,155.228 44.772,200 100,200 C155.228,200 200,155.228 200,100 C200,44.772 155.228,0 100,0 L100,0 Z" id="Shape" fill="#54ABC6" sketch:type="MSShapeGroup"></path>
            <path d="M108,19.998 L80,19.998 C77.792,19.998 76,21.79 76,23.998 C76,26.206 77.792,27.998 80,27.998 L84,27.998 L84,28.004 C85.626,28.04 86.938,29.364 86.938,30.998 C86.938,32.634 85.628,33.958 84,33.992 L84,33.998 L68,33.998 C65.792,33.998 64,35.79 64,37.998 C64,40.206 65.792,41.998 68,41.998 L98,41.998 C100.208,41.998 102,40.206 102,37.998 C102,35.79 100.208,33.998 98,33.998 C96.344,33.998 95,32.654 95,30.998 C95,29.342 96.344,27.998 98,27.998 L108,27.998 C110.208,27.998 112,26.206 112,23.998 C112,21.79 110.208,19.998 108,19.998 L108,19.998 Z" id="Shape" fill="#6FCDEB" sketch:type="MSShapeGroup"></path>
            <path d="M140.31,61.652 C136.46,57.798 126.806,61.212 122.186,65.838 L104.608,83.428 C102.886,81.832 60.194,66.61 58.658,68.14 L53.086,73.702 C51.546,75.24 51.546,77.732 53.086,79.268 L84.3,103.748 L72,116.056 C71.064,116.992 69.89,118.432 68.65,120.148 L68.16,119.658 C67.374,118.874 56.166,117.458 55.38,118.242 L52.54,121.076 C51.756,121.858 51.756,123.126 52.54,123.91 L53.94,125.304 L61.448,132.798 C59.96,136.508 59.41,139.73 60.848,141.168 C62.286,142.61 65.51,142.056 69.224,140.562 L76.622,147.944 L78.094,149.412 C78.878,150.196 80.148,150.196 80.934,149.412 L83.774,146.58 C84.558,145.794 83.138,134.608 82.354,133.826 L81.87,133.344 C83.576,132.108 85.006,130.938 85.938,130.006 L98.238,117.696 L122.73,148.812 C124.27,150.348 126.764,150.348 128.302,148.812 L133.874,143.248 C135.412,141.712 120.136,99.016 118.56,97.36 L136.122,79.786 C140.748,75.166 144.16,65.504 140.31,61.652 L140.31,61.652 Z M140.31,61.652 C136.46,57.798 126.806,61.212 122.186,65.838 L104.608,83.428 C102.886,81.832 60.194,66.61 58.658,68.14 L53.086,73.702 C51.546,75.24 51.546,77.732 53.086,79.268 L84.3,103.748 L72,116.056 C71.064,116.992 69.89,118.432 68.65,120.148 L68.16,119.658 C67.374,118.874 56.166,117.458 55.38,118.242 L52.54,121.076 C51.756,121.858 51.756,123.126 52.54,123.91 L53.94,125.304 L61.448,132.798 C59.96,136.508 59.41,139.73 60.848,141.168 C62.286,142.61 65.51,142.056 69.224,140.562 L76.622,147.944 L78.094,149.412 C78.878,150.196 80.148,150.196 80.934,149.412 L83.774,146.58 C84.558,145.794 83.138,134.608 82.354,133.826 L81.87,133.344 C83.576,132.108 85.006,130.938 85.938,130.006 L98.238,117.696 L122.73,148.812 C124.27,150.348 126.764,150.348 128.302,148.812 L133.874,143.248 C135.412,141.712 120.136,99.016 118.56,97.36 L136.122,79.786 C140.748,75.166 144.16,65.504 140.31,61.652 L140.31,61.652 Z" id="Shape" fill="#53BDE1" sketch:type="MSShapeGroup"></path>
            <path d="M78,63.998 C75.792,63.998 74,65.79 74,67.998 C74,70.206 75.792,71.998 78,71.998 C80.208,71.998 82,70.206 82,67.998 C82,65.79 80.208,63.998 78,63.998 L78,63.998 Z M90,67.998 C87.792,67.998 86,69.79 86,71.998 C86,74.206 87.792,75.998 90,75.998 C92.208,75.998 94,74.206 94,71.998 C94,69.79 92.208,67.998 90,67.998 L90,67.998 Z M134,109.998 C134,107.79 132.208,105.998 130,105.998 C127.792,105.998 126,107.79 126,109.998 C126,112.206 127.792,113.998 130,113.998 C132.208,113.998 134,112.208 134,109.998 L134,109.998 Z M134,117.998 C131.792,117.998 130,119.79 130,121.998 C130,124.206 131.792,125.998 134,125.998 C136.208,125.998 138,124.206 138,121.998 C138,119.79 136.208,117.998 134,117.998 L134,117.998 Z M78,63.998 C75.792,63.998 74,65.79 74,67.998 C74,70.206 75.792,71.998 78,71.998 C80.208,71.998 82,70.206 82,67.998 C82,65.79 80.208,63.998 78,63.998 L78,63.998 Z M90,67.998 C87.792,67.998 86,69.79 86,71.998 C86,74.206 87.792,75.998 90,75.998 C92.208,75.998 94,74.206 94,71.998 C94,69.79 92.208,67.998 90,67.998 L90,67.998 Z M134,109.998 C134,107.79 132.208,105.998 130,105.998 C127.792,105.998 126,107.79 126,109.998 C126,112.206 127.792,113.998 130,113.998 C132.208,113.998 134,112.208 134,109.998 L134,109.998 Z M134,117.998 C131.792,117.998 130,119.79 130,121.998 C130,124.206 131.792,125.998 134,125.998 C136.208,125.998 138,124.206 138,121.998 C138,119.79 136.208,117.998 134,117.998 L134,117.998 Z" id="Shape" fill="#676767" sketch:type="MSShapeGroup"></path>
            <path d="M200,100 C200,86.542 197.324,73.716 192.506,61.998 L174,61.998 C171.792,61.998 170,63.79 170,65.998 C170,68.206 171.792,69.998 174,69.998 L186,69.998 C187.656,69.998 189,71.34 189,72.998 C189,74.654 187.656,75.998 186,75.998 L183,75.998 C180.238,75.998 178,78.236 178,80.998 C178,83.76 180.238,85.998 183,85.998 L192,85.998 C193.656,85.998 195,87.342 195,88.998 C195,90.654 193.656,91.998 192,91.998 L170,91.998 C166.686,91.998 164,94.686 164,97.998 C164,101.312 166.686,103.998 170,103.998 L199.898,103.998 C199.952,102.67 200,101.342 200,100 L200,100 Z" id="Shape" fill="#6FCDEB" sketch:type="MSShapeGroup"></path>
            <g id="Group" transform="translate(6.000000, 69.000000)" fill="#6FCDEB" sketch:type="MSShapeGroup">
                <path d="M81.414,6.412 L78.586,3.584 L5.2,76.968 C5.842,78.204 6.508,79.424 7.198,80.628 L81.414,6.412 L81.414,6.412 Z M1.874,69.956 L69.416,2.414 L66.588,-0.416 L0.272,65.898 C0.78,67.264 1.306,68.62 1.874,69.956 L1.874,69.956 Z M127.414,58.414 L124.586,55.586 L56.476,123.694 C57.828,124.242 59.19,124.766 60.572,125.256 L127.414,58.414 L127.414,58.414 Z M45.638,118.532 C46.86,119.208 48.098,119.85 49.35,120.478 L119.412,50.414 L116.584,47.588 L45.638,118.532 L45.638,118.532 Z" id="Shape"></path>
            </g>
            <g id="Group" transform="translate(58.000000, 71.000000)" fill="#66C3E3" sketch:type="MSShapeGroup">
                <path d="M28.492,5.334 C27.112,4.846 25.71,4.354 24.302,3.868 L8.994,19.176 L12.164,21.662 L28.492,5.334 L28.492,5.334 Z M0.028,12.142 L3.198,14.63 L16.57,1.258 C15.09,0.774 13.652,0.312 12.284,-0.118 L0.028,12.142 L0.028,12.142 Z M52.964,62.862 L67.414,48.412 L64.586,45.586 L50.474,59.698 L52.964,62.862 Z M72.664,59.164 C72.226,57.79 71.758,56.362 71.272,54.9 L57.522,68.648 L60.014,71.814 L72.664,59.164 L72.664,59.164 Z" id="Shape"></path>
            </g>
            <path d="M72.162,115.66 L86.36,129.83 C87.144,130.612 88.564,141.798 87.78,142.584 L84.94,145.416 C84.154,146.2 82.884,146.2 82.1,145.416 L80.628,143.948 L69.366,132.71 L57.944,121.308 L56.544,119.914 C55.76,119.13 55.76,117.862 56.544,117.08 L59.384,114.246 C60.168,113.46 71.376,114.876 72.162,115.66 L72.162,115.66 Z M108.628,79.442 L122.558,93.35 C124.096,94.888 139.42,137.714 137.88,139.25 L132.308,144.814 C130.768,146.35 128.274,146.35 126.736,144.814 L96.04,105.816 L57.088,75.27 C55.548,73.732 55.548,71.24 57.088,69.704 L62.66,64.142 C64.2,62.606 107.09,77.904 108.628,79.442 L108.628,79.442 Z" id="Shape" fill="#ECEADE" sketch:type="MSShapeGroup"></path>
            <path d="M144.31,57.652 C148.16,61.504 144.748,71.166 140.128,75.786 L89.944,126.01 C85.324,130.634 68.7,141.024 64.852,137.17 C61.002,133.318 71.384,116.682 76.002,112.058 L126.188,61.838 C130.806,57.212 140.46,53.798 144.31,57.652 L144.31,57.652 Z" id="Shape" fill="#FFFFFF" sketch:type="MSShapeGroup"></path>
            <path d="M80.596,93.706 L88.522,99.92 L108.814,79.628 L108.628,79.442 C108.182,78.998 104.27,77.4 98.908,75.394 L80.596,93.706 L80.596,93.706 Z" id="Shape" fill="#DEDCCC" sketch:type="MSShapeGroup"></path>
            <path d="M80.002,116.058 L130.188,65.838 C133.974,62.048 141.132,59.08 145.714,60.246 C145.458,59.236 145.006,58.348 144.312,57.652 C140.462,53.798 130.808,57.212 126.188,61.838 L76.002,112.058 C71.382,116.682 61.002,133.318 64.852,137.17 C65.548,137.868 66.67,138.086 68.054,137.968 C68.576,131.692 76.216,119.848 80.002,116.058 L80.002,116.058 Z" id="Shape" fill="#FBFAF6" sketch:type="MSShapeGroup"></path>
        </g>
    </g>
</svg>