<svg xmlns="http://www.w3.org/2000/svg" xmlns:xlink="http://www.w3.org/1999/xlink" xmlns:sketch="http://www.bohemiancoding.com/sketch/ns" width="100px" height="100px" viewBox="0 0 100 100" version="1.1"><style>.style0{fill:	none;fill-rule:	evenodd;}.style1{fill:	#ECEADE;}.style2{fill:	#EFC75E;}.style3{fill:	#E7BF55;}.style4{fill:	#DBB551;}.style5{fill:	#F1D999;}.style6{fill:	#F7E3AF;}.style7{fill:	#F2F2F2;}</style><!-- Generator: Sketch 3.1 (8751) - http://www.bohemiancoding.com/sketch --><title>box</title><desc>Created with Sketch.</desc><defs/><g id="Page-1" sketch:type="MSPage" class="style0"><g id="Oval-2-+-box" sketch:type="MSLayerGroup" transform="translate(-4.000000, -4.000000)"><g id="box" sketch:type="MSShapeGroup"><path d="M54 4 C26.4 4 4 26.4 4 54 C4 81.6 26.4 104 54 104 C81.6 104 104 81.6 104 54 C104 26.4 81.6 4 54 4 L54 4 Z" id="Shape" class="style1"/><path d="M24 39 L54 24 L84 39 L84 41 L54 56 L24 41 L24 39 L24 39 Z" id="Shape" class="style2"/><path d="M24 39 L54 54 L84 39 L84 69 L53.9 84 L24 69 L24 39 L24 39 Z" id="Shape" class="style3"/><path d="M54 83.9 L54 54 L54 54 L24 39 L24 69 L53.9 84 L54 83.9 Z" id="Shape" class="style4"/><path d="M66 48 L66 56.8 L68.7 57 L70.4 55 L72 55.2 L72 45 L66 48 Z" id="Shape" class="style5"/><path d="M36 33 L66.5 48.3 L72 45 L42 30 L36 33 Z" id="Shape" class="style6"/><path d="M48 67.1 L38 62.1 C37.4 61.8 37 62.2 37 62.9 L37 69.1 C37 69.8 37.4 70.6 38 70.9 L48 75.9 C48.5 76.2 49 75.8 49 75.1 L49 68.9 C49 68.2 48.5 67.4 48 67.1 L48 67.1 ZM45.5 72.1 L39.5 69.1 C39.2 69 39 68.6 39 68.2 C39 67.9 39.2 67.7 39.5 67.9 L45.5 70.9 C45.8 71 46 71.4 46 71.8 C46 72.1 45.8 72.3 45.5 72.1 L45.5 72.1 ZM46.5 70.1 L39.5 66.6 C39.2 66.5 39 66.1 39 65.7 C39 65.4 39.2 65.2 39.5 65.4 L46.5 68.9 C46.8 69 47 69.4 47 69.8 C47 70.1 46.8 70.3 46.5 70.1 L46.5 70.1 Z" id="Shape" class="style7"/></g></g></g></svg>