<svg xmlns="http://www.w3.org/2000/svg" xmlns:xlink="http://www.w3.org/1999/xlink" xmlns:sketch="http://www.bohemiancoding.com/sketch/ns" width="101px" height="101px" viewBox="0 0 101 101" version="1.1"><style>.style0{fill:	none;fill-rule:	evenodd;}.style1{fill:	#F05844;}.style2{fill:	#61261E;}.style3{fill:	#F5F5F5;}.style4{fill:	#FFFFFF;}.style5{fill:	#FC8879;}.style6{fill:	#F9D3D3;}.style7{fill:	#817F74;}.style8{fill:	#6A6960;}</style><!-- Generator: Sketch 3.1 (8751) - http://www.bohemiancoding.com/sketch --><title>search</title><desc>Created with Sketch.</desc><defs/><g id="Page-1" sketch:type="MSPage" class="style0"><g id="stroke-+-search" sketch:type="MSLayerGroup" transform="translate(-3.000000, -4.000000)"><g id="search" sketch:type="MSShapeGroup"><path d="M53.6 4.2 C26 4.2 3.6 26.6 3.6 54.2 C3.6 81.8 26 104.2 53.6 104.2 C81.2 104.2 103.6 81.8 103.6 54.2 C103.6 26.6 81.2 4.2 53.6 4.2 L53.6 4.2 Z" id="Shape" class="style1"/><path d="M82.8 76.9 C81.4 75.5 79.4 75.1 77.6 75.7 L72.8 71 C76.2 66.5 78.2 61 78.2 55 C78.2 40.5 66.5 28.7 51.9 28.7 C37.3 28.7 25.6 40.5 25.6 55 C25.5 69.6 37.4 81.4 51.9 81.4 C57.9 81.4 63.4 79.4 67.8 76 L72.5 80.7 C71.9 82.5 72.3 84.5 73.8 85.9 L82.7 94.9 C86.1 92.4 89.3 89.4 92.1 86.1 L82.8 76.9 L82.8 76.9 Z" id="Shape" class="style2"/><path d="M72.1 67.7 L67 72.7 L86.3 92 C88.1 90.4 89.8 88.7 91.4 86.9 L72.1 67.7 L72.1 67.7 Z" id="Shape" class="style3"/><path d="M52.1 26.2 C66.7 26.2 78.6 38.1 78.6 52.7 C78.6 67.3 66.7 79.2 52.1 79.2 C37.4 79.2 25.6 67.3 25.6 52.7 C25.6 38.1 37.5 26.2 52.1 26.2 L52.1 26.2 Z" id="Shape" class="style4"/><path d="M52.1 31.2 C63.9 31.2 73.6 40.8 73.6 52.7 C73.6 64.6 64 74.2 52.1 74.2 C40.2 74.2 30.6 64.6 30.6 52.7 C30.6 40.8 40.2 31.2 52.1 31.2 L52.1 31.2 Z" id="Shape" class="style5"/><path d="M41.8 57.6 C41.3 57.1 40.5 57.1 40 57.6 C39.5 58.1 39.5 58.9 40 59.4 L45.4 64.8 C45.9 65.3 46.7 65.3 47.2 64.8 C47.7 64.3 47.7 63.5 47.2 63 L41.8 57.6 L41.8 57.6 ZM53.2 62 L42.7 51.6 C42.2 51.1 41.5 51.1 41 51.6 C40.5 52.1 40.5 52.9 41 53.4 L51.4 63.8 C51.9 64.3 52.7 64.3 53.2 63.8 C53.7 63.3 53.7 62.5 53.2 62 L53.2 62 Z" id="Shape" class="style6"/><path d="M83.2 74.7 C81.2 72.7 78 72.7 76 74.7 L74.1 76.6 C72.1 78.6 72.1 81.8 74.1 83.8 L84.1 93.8 C87.5 91.2 90.6 88.1 93.2 84.7 L83.2 74.7 L83.2 74.7 Z" id="Shape" class="style7"/><path d="M76.1 81.8 C74.1 79.8 74.1 76.6 76.1 74.6 L76 74.7 L74.1 76.6 C72.1 78.6 72.1 81.8 74.1 83.8 L84.1 93.8 C84.8 93.2 85.6 92.6 86.3 92 L76.1 81.8 L76.1 81.8 Z" id="Shape" class="style8"/><path d="M52.1 31.2 C45.4 31.2 39.4 34.3 35.5 39.1 C39.2 36 43.9 34.2 49.1 34.2 C60.9 34.2 70.6 43.8 70.6 55.7 C70.6 60.9 68.8 65.6 65.7 69.3 C70.5 65.4 73.6 59.4 73.6 52.7 C73.6 40.8 64 31.2 52.1 31.2 L52.1 31.2 Z" id="Shape" class="style1"/></g></g></g></svg>