<svg xmlns="http://www.w3.org/2000/svg" xmlns:xlink="http://www.w3.org/1999/xlink" xmlns:sketch="http://www.bohemiancoding.com/sketch/ns" width="100px" height="100px" viewBox="0 0 100 100" version="1.1"><style>.style0{fill:	none;fill-rule:	evenodd;}.style1{fill:	#ECEADE;}.style2{fill:	#D5D5D5;}.style3{fill:	#FFFFFF;}.style4{fill:	#EFC75E;}.style5{fill:	#F05844;}.style6{fill:	#54ABC6;}.style7{fill:	#F4B459;}.style8{fill:	#37616F;}.style9{fill:	#1E2D36;}</style><!-- Generator: Sketch 3.1 (8751) - http://www.bohemiancoding.com/sketch --><title>speed</title><desc>Created with Sketch.</desc><defs/><g id="Page-1" sketch:type="MSPage" class="style0"><g id="Oval-2-+-speed" sketch:type="MSLayerGroup" transform="translate(-4.000000, -4.000000)"><g id="speed" sketch:type="MSShapeGroup"><path d="M54 4 C26.4 4 4 26.4 4 54 C4 81.6 26.4 104 54 104 C81.6 104 104 81.6 104 54 C104 26.4 81.6 4 54 4 L54 4 Z" id="Shape" class="style1"/><path d="M82.6 31 L84 32.4 L46.3 66 L42 61.7 L82.6 31 L82.6 31 Z" id="Shape" class="style2"/><path d="M65 81 L65 87 L59 87 L59 81 L57 81 L57 87 L51 87 L51 81 L49 81 L49 87 L43 87 L43 81 L41 81 L41 89 L67 89 L67 81 L65 81 L65 81 Z" id="Shape" class="style3"/><path d="M51 12.1 C35.8 13.1 22.7 22.4 16.3 35.5 L21.7 38.2 C27.5 26.5 39.4 18.4 53 18 C53.4 18 53.7 18 54 18 L54 12 C53 12 52 12 51 12.1 L51 12.1 Z" id="Shape" class="style4"/><path d="M90 54 C90 59.5 88.5 64.9 86.3 69.6 C85.6 71 86.1 72.8 87.5 73.6 L87.6 73.6 C89.2 74.5 91.1 73.8 91.9 72.2 C94.5 66.7 96 60.4 96 54 C96 46.9 94.3 40.3 91.2 34.5 L85.9 37.3 C88.5 42.3 90 48 90 54 L90 54 Z" id="Shape" class="style5"/><path d="M20.4 73.6 L20.5 73.6 C21.9 72.8 22.4 71.1 21.7 69.7 C19.3 64.7 17.8 58.6 18 52.6 C18.2 47.1 19.7 41.9 22.2 37.3 L16.8 34.5 C14.2 39.4 12.6 44.8 12.1 50.5 C11.5 58.2 13 65.9 16.1 72.3 C16.9 73.8 18.8 74.5 20.4 73.6 L20.4 73.6 Z" id="Shape" class="style6"/><path d="M54 12 L54 18 C68.2 18 80.4 26.2 86.3 38.1 L91.7 35.5 C84.8 21.6 70.5 12 54 12 L54 12 Z" id="Shape" class="style7"/><path d="M80.6 26 L82 27.4 L46.3 66 L42 61.7 L80.6 26 L80.6 26 Z" id="Shape" class="style8"/><path d="M54 49 C51.2 49 49 51.2 49 54 C49 56.8 51.2 59 54 59 C56.8 59 59 56.8 59 54 C59 51.2 56.8 49 54 49 L54 49 Z" id="Shape" class="style9"/></g></g></g></svg>