<svg xmlns="http://www.w3.org/2000/svg" xmlns:xlink="http://www.w3.org/1999/xlink" xmlns:sketch="http://www.bohemiancoding.com/sketch/ns" width="100px" height="101px" viewBox="0 0 100 101" version="1.1"><style>.style0{fill:	none;fill-rule:	evenodd;}.style1{fill:	#54ABC6;}.style2{fill:	#2085AA;}.style3{fill:	#FFFFFF;}</style><!-- Generator: Sketch 3.1 (8751) - http://www.bohemiancoding.com/sketch --><title>tactics</title><desc>Created with Sketch.</desc><defs/><g id="Page-1" sketch:type="MSPage" class="style0"><g id="stroke-2-+-tactics" sketch:type="MSLayerGroup" transform="translate(-4.000000, -3.500000)"><g id="tactics" transform="translate(4.000000, 4.000000)" sketch:type="MSShapeGroup"><path d="M50 -0 C77.615 -0 100 22.4 100 50 C100.001 77.6 77.6 100 50 100 C22.386 100 0 77.6 0 50 C0 22.4 22.4 -0 50 -0 L50 -0 Z" id="Shape" class="style1"/><g id="Group" class="style2"><path d="M41.3 29.9 C44.8 30.6 48.2 28.3 48.9 24.7 C49.6 21.2 47.2 17.8 43.7 17.1 C40.2 16.4 36.8 18.7 36.1 22.3 C35.4 25.8 37.8 29.2 41.3 29.9 L41.3 29.9 ZM39 22.8 C39.4 20.9 41.2 19.7 43.1 20.1 C45 20.4 46.3 22.3 45.9 24.2 C45.6 26.1 43.7 27.3 41.8 26.9 C39.9 26.6 38.7 24.7 39 22.8 L39 22.8 ZM27.5 54.5 L30.6 51.4 C31.1 50.9 31.1 50 30.6 49.4 C30 48.8 29.1 48.8 28.5 49.4 L25.5 52.4 L22.5 49.4 C21.9 48.8 21 48.8 20.4 49.4 C19.9 50 19.9 50.9 20.4 51.4 L23.5 54.5 L20.4 57.5 C19.8 58.1 19.8 59 20.4 59.6 C21 60.1 21.9 60.1 22.4 59.6 L25.5 56.5 L28.6 59.6 C29.1 60.1 30 60.1 30.6 59.6 C31.2 59 31.2 58.1 30.6 57.5 L27.5 54.5 L27.5 54.5 ZM78.6 45.5 L75.5 42.5 L78.6 39.4 C79.1 38.9 79.1 38 78.6 37.4 C78 36.8 77.1 36.8 76.5 37.4 L73.5 40.4 L70.5 37.4 C69.9 36.8 69 36.8 68.4 37.4 C67.9 38 67.9 38.9 68.4 39.4 L71.5 42.5 L68.4 45.5 C67.8 46.1 67.8 47 68.4 47.6 C69 48.1 69.9 48.1 70.4 47.6 L73.5 44.5 L76.6 47.6 C77.1 48.1 78 48.1 78.6 47.6 C79.2 47 79.2 46.1 78.6 45.5 L78.6 45.5 ZM68.5 74.5 L71.6 71.4 C72.1 70.9 72.1 70 71.6 69.4 C71 68.8 70.1 68.8 69.5 69.4 L66.5 72.4 L63.5 69.4 C62.9 68.8 62 68.8 61.4 69.4 C60.9 70 60.9 70.9 61.4 71.4 L64.5 74.5 L61.4 77.5 C60.8 78.1 60.8 79 61.4 79.6 C62 80.1 62.9 80.1 63.4 79.6 L66.5 76.5 L69.6 79.6 C70.1 80.1 71 80.1 71.6 79.6 C72.2 79 72.2 78.1 71.6 77.5 L68.5 74.5 L68.5 74.5 ZM58.5 42 L46.7 36.1 L44.8 42.6 L43.1 48.1 C43.1 48.2 43.1 48.3 43.1 48.4 C43.1 49.1 43.7 49.7 44.4 49.8 L44.7 49.8 C45.5 49.7 46 49.2 46.3 48.4 L47.9 43.2 C52.7 52.4 50.5 64 41.9 70.7 C39.9 72.3 36.9 74 34.1 75.1 C34.1 75.1 31.3 75.8 31.4 77.5 C31.5 80.4 35.5 78.6 36.2 78.4 C39 77.3 41.5 75.9 44.3 73.7 C54.2 65.9 56.9 52.6 51.6 41.9 L56.2 44.3 C56.8 44.5 57.4 44.8 58 44.7 C58.7 44.7 59.2 44 59.2 43.2 C59.2 42.7 58.9 42.3 58.5 42 L58.5 42 Z" id="Shape"/></g><g id="Group" class="style3"><path d="M42.3 28.9 C45.8 29.6 49.2 27.3 49.9 23.7 C50.6 20.2 48.2 16.8 44.7 16.1 C41.2 15.4 37.8 17.7 37.1 21.3 C36.4 24.8 38.8 28.2 42.3 28.9 L42.3 28.9 ZM40 21.8 C40.4 19.9 42.2 18.7 44.1 19.1 C46 19.4 47.3 21.3 46.9 23.2 C46.6 25.1 44.7 26.3 42.8 25.9 C40.9 25.6 39.7 23.7 40 21.8 L40 21.8 ZM28.5 53.5 L31.6 50.4 C32.1 49.9 32.1 49 31.6 48.4 C31 47.8 30.1 47.8 29.5 48.4 L26.5 51.4 L23.5 48.4 C22.9 47.8 22 47.8 21.4 48.4 C20.9 49 20.9 49.9 21.4 50.4 L24.5 53.5 L21.4 56.5 C20.8 57.1 20.8 58 21.4 58.6 C22 59.1 22.9 59.1 23.4 58.6 L26.5 55.5 L29.6 58.6 C30.1 59.1 31 59.1 31.6 58.6 C32.2 58 32.2 57.1 31.6 56.5 L28.5 53.5 L28.5 53.5 ZM79.6 44.5 L76.5 41.5 L79.6 38.4 C80.1 37.9 80.1 37 79.6 36.4 C79 35.8 78.1 35.8 77.5 36.4 L74.5 39.4 L71.5 36.4 C70.9 35.8 70 35.8 69.4 36.4 C68.9 37 68.9 37.9 69.4 38.4 L72.5 41.5 L69.4 44.5 C68.8 45.1 68.8 46 69.4 46.6 C70 47.1 70.9 47.1 71.4 46.6 L74.5 43.5 L77.6 46.6 C78.1 47.1 79 47.1 79.6 46.6 C80.2 46 80.2 45.1 79.6 44.5 L79.6 44.5 ZM69.5 73.5 L72.6 70.4 C73.1 69.9 73.1 69 72.6 68.4 C72 67.8 71.1 67.8 70.5 68.4 L67.5 71.4 L64.5 68.4 C63.9 67.8 63 67.8 62.4 68.4 C61.9 69 61.9 69.9 62.4 70.4 L65.5 73.5 L62.4 76.5 C61.8 77.1 61.8 78 62.4 78.6 C63 79.1 63.9 79.1 64.4 78.6 L67.5 75.5 L70.6 78.6 C71.1 79.1 72 79.1 72.6 78.6 C73.2 78 73.2 77.1 72.6 76.5 L69.5 73.5 L69.5 73.5 ZM59.5 41 L47.7 35.1 L45.8 41.6 L44.1 47.1 C44.1 47.2 44.1 47.3 44.1 47.4 C44.1 48.1 44.7 48.7 45.4 48.8 L45.7 48.8 C46.5 48.7 47 48.2 47.3 47.4 L48.9 42.2 C53.7 51.4 51.5 63 42.9 69.7 C40.9 71.3 37.9 73 35.1 74.1 C35.1 74.1 32.3 74.8 32.4 76.5 C32.5 79.4 36.5 77.6 37.2 77.4 C40 76.3 42.5 74.9 45.3 72.7 C55.2 64.9 57.9 51.6 52.6 40.9 L57.2 43.3 C57.8 43.5 58.4 43.8 59 43.7 C59.7 43.7 60.2 43 60.2 42.2 C60.2 41.7 59.9 41.3 59.5 41 L59.5 41 Z" id="Shape"/></g></g></g></g></svg>